<svg xmlns="http://www.w3.org/2000/svg" width="186" height="41" viewBox="0 0 186 41" fill="none" id="Logo"><g id="logomark"><path fill-rule="evenodd" clip-rule="evenodd" d="M59.0372 2.72873C59.0372 1.33934 60.1758 0.213013 61.5805 0.213013H66.0111C67.0108 0.213013 67.9797 0.555712 68.7527 1.18277L70.1005 2.27605L70.1342 2.30646C70.1653 2.29608 70.1964 2.28594 70.2276 2.27605C72.6592 1.50566 75.6094 1.35915 78.6205 1.35915C81.6316 1.35915 84.5818 1.50566 87.0134 2.27605C87.0446 2.28594 87.0757 2.29608 87.1068 2.30646L87.1405 2.27605L88.4883 1.18277C89.2613 0.555712 90.2302 0.213013 91.2299 0.213013H95.6605C97.0652 0.213013 98.2038 1.33934 98.2038 2.72873V4.28391C98.2038 5.48716 97.6914 6.63475 96.7922 7.44515L95.7049 8.42514C95.1741 8.90356 94.537 9.25174 93.845 9.44156L93.5878 9.51212C94.5953 11.8901 95.1519 14.4319 95.1519 16.4881C95.1519 24.7595 89.978 28.3318 85.4192 31.4794C81.8291 33.9582 78.6205 36.1735 78.6205 40.2131C78.6205 36.1735 75.4119 33.9582 71.8218 31.4794C67.263 28.3318 62.0891 24.7595 62.0891 16.4881C62.0891 14.4319 62.6457 11.8901 63.6532 9.51212L63.396 9.44156C62.704 9.25174 62.0669 8.90356 61.5361 8.42514L60.4488 7.44515C59.5496 6.63475 59.0372 5.48716 59.0372 4.28391V2.72873ZM81.9268 23.2503C81.9268 23.6455 81.7526 24.0244 81.4426 24.3039C81.1326 24.5833 80.7121 24.7403 80.2736 24.7403C79.8951 24.7403 79.5299 24.6232 79.2377 24.4114C79.7351 25.7284 81.008 26.9763 82.9441 24.9695C84.6533 23.1048 82.8681 19.1719 81.1289 16.8381C80.5492 16.0602 79.5975 15.6858 78.6205 15.6858C77.6435 15.6858 76.6918 16.0602 76.1121 16.8381C74.3729 19.1719 72.5877 23.1048 74.2969 24.9695C76.233 26.9763 77.5059 25.7284 78.0033 24.4114C77.7111 24.6232 77.3459 24.7403 76.9674 24.7403C76.5289 24.7403 76.1084 24.5833 75.7984 24.3039C75.4884 24.0244 75.3142 23.6455 75.3142 23.2503H81.9268ZM72.2898 11.6082H67.6844L71.3139 14.4829C72.1126 15.1154 73.28 14.9132 73.7742 14.0567C74.3982 12.9753 73.5694 11.6082 72.2898 11.6082ZM84.9512 11.6082H89.5566L85.9271 14.4829C85.1284 15.1154 83.961 14.9132 83.4668 14.0567C82.8428 12.9753 83.6716 11.6082 84.9512 11.6082Z" fill="#72B800"></path></g><g id="logotype"><path d="M103.689 28.5462H107.769V13.1562H103.689V28.5462ZM103.689 10.7562H107.769V7.09619H103.689V10.7562Z" fill="#355030"></path><path d="M110.398 33.5863H114.478V26.8063H114.538C115.408 28.1263 116.818 28.9963 118.978 28.9963C122.938 28.9963 125.638 25.8463 125.638 20.8663C125.638 16.0663 123.028 12.7363 118.948 12.7363C116.848 12.7363 115.408 13.7263 114.418 15.0763H114.328V13.1563H110.398V33.5863ZM118.108 25.6063C115.678 25.6063 114.388 23.7763 114.388 20.9863C114.388 18.2263 115.408 16.0363 117.958 16.0363C120.478 16.0363 121.498 18.0763 121.498 20.9863C121.498 23.8963 120.178 25.6063 118.108 25.6063Z" fill="#355030"></path><path d="M133.778 28.9963C137.618 28.9963 140.258 27.1363 140.258 24.0463C140.258 20.4463 137.408 19.7263 134.828 19.1863C132.638 18.7363 130.598 18.6163 130.598 17.2963C130.598 16.1863 131.648 15.5863 133.238 15.5863C134.978 15.5863 136.028 16.1863 136.208 17.8363H139.898C139.598 14.7463 137.348 12.7363 133.298 12.7363C129.788 12.7363 127.028 14.3263 127.028 17.6563C127.028 21.0163 129.728 21.7663 132.488 22.3063C134.588 22.7263 136.538 22.8763 136.538 24.3463C136.538 25.4263 135.518 26.1163 133.718 26.1163C131.888 26.1163 130.628 25.3363 130.358 23.5663H126.578C126.818 26.8363 129.308 28.9963 133.778 28.9963Z" fill="#355030"></path><path d="M155.749 28.5463V13.1562H151.669V22.0363C151.669 24.0763 150.499 25.5163 148.579 25.5163C146.839 25.5163 146.029 24.5262 146.029 22.7262V13.1562H141.979V23.4163C141.979 26.7762 143.899 28.9662 147.319 28.9662C149.479 28.9662 150.679 28.1562 151.729 26.7463H151.819V28.5463H155.749Z" fill="#355030"></path><path d="M158.389 28.5463H162.469V19.6063C162.469 17.5663 163.579 16.2463 165.229 16.2463C166.729 16.2463 167.599 17.1463 167.599 18.8863V28.5463H171.679V19.6063C171.679 17.5663 172.729 16.2463 174.439 16.2463C175.939 16.2463 176.809 17.1463 176.809 18.8863V28.5463H180.889V18.1963C180.889 14.8363 179.059 12.7363 175.819 12.7363C173.869 12.7363 172.249 13.7563 171.199 15.4363H171.139C170.389 13.8163 168.829 12.7363 166.879 12.7363C164.749 12.7363 163.249 13.8163 162.409 15.2263H162.319V13.1563H158.389V28.5463Z" fill="#355030"></path><path d="M0.683594 28.5462H4.76359V7.09619H0.683594V28.5462Z" fill="#355030"></path><path d="M14.7412 28.9963C19.5112 28.9963 22.7812 25.4563 22.7812 20.8663C22.7812 16.2763 19.5112 12.7363 14.7412 12.7363C9.97117 12.7363 6.70117 16.2763 6.70117 20.8663C6.70117 25.4563 9.97117 28.9963 14.7412 28.9963ZM14.7412 25.8763C12.2212 25.8763 10.8412 23.8663 10.8412 20.8663C10.8412 17.8663 12.2212 15.8263 14.7412 15.8263C17.2312 15.8263 18.6412 17.8663 18.6412 20.8663C18.6412 23.8663 17.2312 25.8763 14.7412 25.8763Z" fill="#355030"></path><path d="M31.4577 33.7963C33.7377 33.7963 35.7177 33.2563 37.0077 32.0563C38.1477 31.0063 38.8377 29.5363 38.8377 27.3763V13.1563H34.9077V14.7763H34.8477C33.9177 13.4863 32.5077 12.7363 30.5877 12.7363C26.6877 12.7363 23.9277 15.6763 23.9277 20.2663C23.9277 24.9163 27.2877 27.6163 30.7077 27.6163C32.6577 27.6163 33.8277 26.8363 34.7277 25.8163H34.8177V27.4963C34.8177 29.5963 33.7077 30.7063 31.3977 30.7063C29.5077 30.7063 28.6377 29.9563 28.3077 28.9963H24.2577C24.6777 31.9963 27.2577 33.7963 31.4577 33.7963ZM31.3977 24.3463C29.2977 24.3463 27.9177 22.8163 27.9177 20.2063C27.9177 17.6263 29.2977 16.0063 31.3677 16.0063C33.8277 16.0063 35.0277 17.9263 35.0277 20.1763C35.0277 22.4563 33.9777 24.3463 31.3977 24.3463Z" fill="#355030"></path><path d="M48.7548 28.9963C53.5248 28.9963 56.7948 25.4563 56.7948 20.8663C56.7948 16.2763 53.5248 12.7363 48.7548 12.7363C43.9848 12.7363 40.7148 16.2763 40.7148 20.8663C40.7148 25.4563 43.9848 28.9963 48.7548 28.9963ZM48.7548 25.8763C46.2348 25.8763 44.8548 23.8663 44.8548 20.8663C44.8548 17.8663 46.2348 15.8263 48.7548 15.8263C51.2448 15.8263 52.6548 17.8663 52.6548 20.8663C52.6548 23.8663 51.2448 25.8763 48.7548 25.8763Z" fill="#355030"></path><path d="M180.703 9.79639C180.703 9.10603 181.262 8.54639 181.953 8.54639H184.453C185.143 8.54639 185.703 9.10603 185.703 9.79639C185.703 10.4867 185.143 11.0464 184.453 11.0464H181.953C181.262 11.0464 180.703 10.4867 180.703 9.79639Z" fill="#355030"></path></g></svg>
